<?xml version="1.0" encoding="utf-8"?>
<svg xmlns="http://www.w3.org/2000/svg" viewBox="0 0 500 500">
  <ellipse style="stroke: rgb(0, 0, 0);" cx="250" cy="250" rx="93.75" ry="93.75" class="center"/>
  <path style="stroke: rgb(0, 0, 0);" d="M 156.06 250.331 L 92.983 250.299 C 92.983 250.299 92.888 211.963 92.995 191.971 C 93.05 181.663 96.426 167.232 97.456 163.366 C 101.582 147.875 112.682 132.527 124.646 120.507 C 133.188 111.925 143.023 104.815 155.379 100.79 C 165.778 97.403 163.404 97.943 167.273 96.859 C 174.298 94.89 179.588 93.423 186.723 93.221 C 207.733 92.628 249.017 93.1 249.017 93.1 L 249.058 156.329 C 198.1 157.067 156.317 196.78 156.06 250.331 Z" class="upperleft"/>
  <path style="stroke-width: 1; stroke: rgb(0, 0, 0); transform-box: fill-box; transform-origin: 50% 50%;" d="M 156.737 407.875 L 93.844 407.926 C 93.844 407.926 93.966 369.692 94.073 349.7 C 94.128 339.392 97.504 324.961 98.534 321.095 C 102.66 305.604 113.76 290.256 125.724 278.236 C 134.266 269.654 144.101 262.544 156.457 258.519 C 166.856 255.132 164.482 255.672 168.351 254.588 C 175.376 252.619 180.666 251.152 187.801 250.95 C 208.811 250.357 250.122 250.582 250.122 250.582 L 250.253 313.722 C 199.295 314.46 156.994 354.324 156.737 407.875 Z" transform="matrix(0, -1, 1, 0, -0.437218, -0.803757)" class="lowerleft"/>
  <path style="stroke-width: 1; stroke: rgb(0, 0, 0); transform-origin: 329.242px 328.329px;" d="M 314.887 407.569 L 252.439 407.419 C 252.439 407.419 251.78 368.971 251.887 348.979 C 251.942 338.671 255.318 324.24 256.348 320.374 C 260.474 304.883 271.574 289.535 283.538 277.515 C 292.08 268.933 301.915 261.823 314.271 257.798 C 324.67 254.411 322.296 254.951 326.165 253.867 C 333.19 251.898 338.48 250.431 345.615 250.229 C 366.625 249.636 408.292 250.14 408.292 250.14 L 408.132 312.867 C 357.174 313.605 315.144 354.018 314.887 407.569 Z" class="lowerright" transform="matrix(-1, 0, 0, -1, 0, -0.000061)"/>
  <path style="stroke: rgb(0, 0, 0); stroke-width: 1; transform-box: fill-box; transform-origin: 50% 50%;" d="M 312.574 93.58 L 250.042 93.34 C 250.042 93.34 249.947 130.995 250.054 150.987 C 250.109 161.295 253.485 175.726 254.515 179.592 C 258.641 195.083 269.741 210.431 281.705 222.451 C 290.247 231.033 300.082 238.143 312.438 242.168 C 322.837 245.555 320.463 245.015 324.332 246.099 C 331.357 248.068 336.647 249.535 343.782 249.737 C 364.792 250.33 406.893 249.586 406.893 249.586 L 406.798 187.038 C 355.84 186.3 312.831 147.131 312.574 93.58 Z" class="upperleft" transform="matrix(-1, 0, 0, -1, -0.776009, -0.643341)"/>
</svg>